# xmcd
#
# Track frame offsets: 
#        150
#        14113
#        23222
#        41470
#        57468
#        67999
#        91085
#        104198
#        114530
#        126970
#        139277
#        149854
#        159032
#        168425
#
# Disc length: 2380 seconds
#
# Revision: 0
# Processed by: cddbd v1.5.2PL0 Copyright (c) Steve Scherf et al.
# Submitted via: ExactAudioCopyFreeDBPlugin 1.0
#
DISCID=cd094a0e
DTITLE=Various Artist - Country Spectacular vol4
DYEAR=1999
DGENRE=Country
TTITLE0=Tammy Wynette - Crying in your rain
TTITLE1=Porter Wagoner - Sugar Foot Rag
TTITLE2=Charlie Rich - Let's take it nice and easy
TTITLE3=Tex Williams - Deck of Cards
TTITLE4=Stella Parton - Danger of a Stranger
TTITLE5=Dottie West - An American Trilogy
TTITLE6=Lorrie Morgan - Stuck on you
TTITLE7=Faron Young - Hello Walls
TTITLE8=Bobby Bare - Tequila Sheila
TTITLE9=Patty Loveless - Lonely Days,Lonely Nights
TTITLE10=Tammy Wynette - Another Chance
TTITLE11=George Jones - No Show Jones
TTITLE12=Johnny Tillotson - That's Alright Mama
TTITLE13=Freddy Fender - Before The Next Teardrop Falls
EXTD=
EXTT0=
EXTT1=
EXTT2=
EXTT3=
EXTT4=
EXTT5=
EXTT6=
EXTT7=
EXTT8=
EXTT9=
EXTT10=
EXTT11=
EXTT12=
EXTT13=
PLAYORDER=
